<?xml version="1.0" encoding="UTF-8"?>
<!-- Generator: Adobe Illustrator 13.0.0, SVG Export Plug-In . SVG Version: 6.00 Build 14948)  -->
<!DOCTYPE svg PUBLIC "-//W3C//DTD SVG 1.1//EN" "http://www.w3.org/Graphics/SVG/1.1/DTD/svg11.dtd">
<svg version="1.1" id="Layer_1" xmlns="http://www.w3.org/2000/svg" xmlns:xlink="http://www.w3.org/1999/xlink" x="0px" y="0px" width="1004.882px" height="340.781px" viewBox="0 0 1004.882 340.781" enable-background="new 0 0 1004.882 340.781" xml:space="preserve">
<g>
	<path fill="#003567" d="M130.556,0C60.046,0.011,2.47,56.833,2.44,126.725c0.029,69.934,57.605,126.739,128.115,126.739v0.01   c70.553-0.01,128.149-56.814,128.172-126.749C258.705,56.833,201.108,0.011,130.556,0 M130.556,247.08   C63.553,247.08,8.84,193.067,8.84,126.735C8.84,60.453,63.553,6.402,130.556,6.402c67.063,0,121.769,54.051,121.769,120.333   C252.325,193.067,197.619,247.08,130.556,247.08"/>
	<path fill-rule="evenodd" clip-rule="evenodd" fill="#003567" d="M130.556,39.671c47.907,0,86.988,38.709,86.988,86.205   c0,47.487-39.081,86.192-86.988,86.192c-38.609,0-71.108-25.39-82.768-59.939c-0.486-1.405-0.17-3.005,1.41-3.005   c0.952,0,1.758,0.817,1.758,1.85h0.047c10.769,33.39,42.414,57.666,79.553,57.666c46.007,0,83.518-37.176,83.518-82.764   c0-45.606-37.511-82.819-83.518-82.819c-45.937,0-83.467,37.213-83.467,82.819c0,4.931,0.368,9.803,1.278,14.541   c0.25,1.278,0.08,2.475-1.565,2.475c-0.995,0-1.805-0.744-1.805-1.679v-0.146c-0.873-4.937-1.372-10.005-1.372-15.191   C43.625,78.38,82.709,39.671,130.556,39.671"/>
	<path fill-rule="evenodd" clip-rule="evenodd" fill="#003567" d="M130.556,5.05c67.813,0,123.141,54.659,123.141,121.685   c0,67.067-55.328,121.694-123.141,121.694v-4.833c65.135,0,118.285-52.462,118.285-116.861c0-64.344-53.15-116.866-118.285-116.866   V5.05z M130.556,248.429c-67.761,0-123.08-54.627-123.08-121.694C7.476,59.708,62.794,5.05,130.556,5.05v4.819   c-65.083,0-118.168,52.522-118.168,116.866c0,64.399,53.085,116.861,118.168,116.861V248.429z"/>
	<path fill-rule="evenodd" clip-rule="evenodd" fill="#003567" d="M131.305,61.557L131.305,61.557c1.448,0,2.635,1.117,2.635,2.479   v101.817c0,1.363-1.187,2.471-2.635,2.471c-1.447,0-2.644-1.108-2.644-2.471V64.036C128.661,62.674,129.857,61.557,131.305,61.557"/>
	<path fill-rule="evenodd" clip-rule="evenodd" fill="#003567" d="M106.543,85.343L106.543,85.343c0-1.434,1.099-2.626,2.457-2.626   h44.644c1.363,0,2.49,1.192,2.49,2.626c0,1.494-1.127,2.649-2.49,2.649H109C107.642,87.992,106.543,86.837,106.543,85.343"/>
	<path fill-rule="evenodd" clip-rule="evenodd" fill="#003567" d="M46.019,145.004h15.63c0.736,0,1.4,0.66,1.4,1.513   c0,0.835-0.664,1.486-1.4,1.486h-15.63c-0.783,0-1.404-0.651-1.404-1.486C44.615,145.665,45.235,145.004,46.019,145.004"/>
	<path fill-rule="evenodd" clip-rule="evenodd" fill="#003567" d="M135.685,189.8c3.074,1.461,5.186,4.461,5.186,7.969v0.202   c2.801,0.609,5.098,2.382,6.379,4.78h-0.046c0.122,0.284,0.226,0.58,0.226,0.91c0,1.108-0.872,2.008-1.948,2.008   c-0.905,0-1.645-0.626-1.908-1.48l-0.029,0.048c-0.89-1.692-2.729-2.806-4.786-2.806c-2.843,0-5.181,2.104-5.435,4.775h-1.891   v-5.195c1.362-1.565,3.258-2.677,5.454-3.092v-0.15c0-2.9-2.441-5.239-5.454-5.239v-6.483c0.49,0.049,0.942,0.128,1.362,0.224   c1.683,0.234,3.414,0.451,5.017,0.691c1.235,1.066,2.56,1.693,4.299,1.929c3.584,0.288,6.922,0.425,10.472-0.617   c1.721-0.892,2.848-2.787,6.917-2.561c4.375,0.259,4.46,2.612,8.779,3.267c3.216-0.418,4.748-2.848,8.166-2.767   c2.301,0.16,3.008,1.989,5.483,2.061c1.696,0.085,2.358-1.156,4.371-0.336v0.953c-4.139-0.037-4.866,1.82-6.794,1.362   c-1.792-0.41-1.623-1.315-3.791-1.112c-3.022,0.75-4.71,3.06-8.096,3.183c-4.784-0.405-5.355-3.094-8.82-3.301   c-2.877-0.25-3.956,2.797-10.836,3.301c-3.059-0.278-6.307-0.255-8.335-1.896C138.071,190.082,136.788,189.89,135.685,189.8    M131.433,206.206h-3.051c0-2.875-2.39-5.228-5.408-5.228c-2.188,0-4.035,1.231-4.932,3.004c-0.307,0.749-0.989,1.234-1.819,1.234   c-1.071,0-1.944-0.904-1.944-2.018c0-0.373,0.133-0.735,0.284-1.075c1.442-2.593,4.216-4.432,7.463-4.771   c0.132-2.961,1.816-5.572,4.295-7.101c-2.39,0.542-4.611,1.405-7.062,1.292c-1.547-0.09-2.678-0.925-3.588-1.941   c-1.028-1.122-2.126-0.906-3.201,0c-0.463,0.409-0.755,1.107-1.274,1.403c-1.998,1.062-4.342,1.104-6.61,0.086   c-0.854-0.382-1.428-1.25-2.215-1.777c-1.774-1.113-3.415-1.448-5.861,0.074c-1.443,0.916-1.891,1.23-3.46,1.872   c-2.052,0.783-5.362,0.891-7.412-0.642c-2.066-1.479-4.38-4.488-7.011-4.35c-0.736,0-1.075-0.633-0.58-0.954   c2.169-1.484,4.172-0.617,6.025,0.604c3.616,2.324,6.044,2.642,8.087,1.858c2.041-0.731,3.487-1.971,5.1-2.423   c1.976-0.524,3.867-0.656,5.517,0.319c1.735,1.047,3.38,2.263,5.318,2.438c1.981,0.16,3.145-2.758,6.511-2.896   c1.937-0.033,2.32,1.665,3.636,2.353c1.57,0.82,2.804,1.25,4.45,0.703c0.994-0.373,1.401-1.938,1.401-2.838l1.777,1.37   c0.868-0.504,2.39-0.834,4.201-0.834v-0.118c0.25,0.029,0.486,0.066,0.787,0.118c0.194,0.049,0.363,0.049,0.576,0.075v6.483   c-3.003,0-5.408,2.339-5.408,5.239v0.036c2.065,0.655,3.833,2.024,4.992,3.755c0.124-0.171,0.254-0.341,0.416-0.549V206.206z"/>
	<path fill-rule="evenodd" clip-rule="evenodd" fill="#003567" d="M135.633,165.076c14.187-0.99,22.674-6.639,23.871-15.555v-26.662   l52.716,0.037v0.496v1.692c-0.117,13.513-3.484,25.687-12.366,36.856c-12.976,16.885-38.955,24.396-64.221,25.177v-5.144   c24.725-1.08,45.182-9.004,55.526-19.377c12.132-11.368,15.739-24.777,15.569-33.966l-41.207-0.038l0.121,17.515   c-0.212,16.823-16.657,24-30.009,25.017V165.076z M55.547,149.577h41.906c7.761,8.69,16.87,15.748,33.913,15.654   c1.467-0.024,2.904-0.08,4.267-0.155v6.048c-1.561,0.081-3.073,0.133-4.536,0.081c-22.409-0.693-30.877-11.193-36.03-17.011H64.529   c11.9,18.501,40.27,27.403,62.688,27.864c2.852,0.029,5.663,0.029,8.416-0.085v5.144c-1.815,0.048-3.584,0.095-5.352,0.095   c-32.914,0.411-55.997-12.443-73.546-32.202C55.817,153.317,55.624,151.379,55.547,149.577"/>
	<path fill-rule="evenodd" clip-rule="evenodd" fill="#003567" d="M97.424,22.603c0.688-0.283,1.113-1.066,1.769-1.513   c1.075-0.825,2.177-0.679,3.177,0.357c1.655,3.956,3.127,7.809,3.998,11.967c0.255,1.198-0.914,3.786,0.896,3.834   c1.91-0.374,2.814-0.831,4.663-1.203c1.368-0.942-0.943-2.353-1.429-3.575c-1.498-3.926-2.985-7.76-3.554-11.885   c-0.254-1.896,2.056-2.219,4.493-1.476c0.82,0.237,1.933,0.487,2.212-0.131c0.871-1.727-0.487-4.154-3.571-3.707   c-4.785,0.741-9.537,1.608-13.968,3.589c-1.364,0.579-1.528,2.106-0.958,3.045C95.703,22.816,96.679,22.933,97.424,22.603"/>
	<path fill-rule="evenodd" clip-rule="evenodd" fill="#003567" d="M216.187,193.934c-0.425,0.642-0.425,1.52-0.666,2.227   c-0.485,1.268-1.528,1.725-2.931,1.392c-3.458-2.513-6.743-4.952-9.728-8.03c-0.81-0.909-1.235-3.663-2.805-2.764   c-1.391,1.316-1.895,2.179-3.301,3.503c-0.654,1.477,2.065,1.477,3.145,2.269c3.344,2.51,6.602,4.979,9.261,8.165   c1.254,1.486-0.561,3-3.037,3.654c-0.792,0.218-1.881,0.584-1.82,1.283c0.217,1.886,2.678,3.254,5.031,1.25   c3.677-3.149,7.209-6.437,9.976-10.443c0.834-1.236,0.175-2.594-0.819-3.083C217.543,192.892,216.635,193.265,216.187,193.934"/>
	<path fill-rule="evenodd" clip-rule="evenodd" fill="#003567" d="M157.104,35.05c-1.103,3.008-1.974,3.933-3.616,3.759   c-4.417-0.283-5.988-1.859-10.226-2.268c-0.9-0.082-2.108-0.868-1.575-1.858c0.377-0.655,1.084-0.99,1.575-1.562   c0.618-0.739,0.995-1.697,1.197-2.682c0.746-3.705,1.608-6.756,2.273-10.509c0.076-0.543-0.345-0.867-0.759-1.409   c-0.575-0.765-0.245-2.259,1.277-2.637c1.688,0.09,3.013,0.425,5.037,1.08c0.952,0.331,1.201,2.348-0.09,2.882   c-0.977,0.453-1.184,0.668-1.322,1.197c-0.805,3.625-1.842,6.968-2.823,10.541c-0.428,1.623-0.047,2.575,0.934,3.056   c1.532,0.947,3.083,1.651,4.658,0.825c0.782-0.415,1.448-1.065,2.357-1.551C157.067,33.65,157.351,33.914,157.104,35.05"/>
	<path fill-rule="evenodd" clip-rule="evenodd" fill="#003567" d="M164.78,31.221c0.783-2.056,1.57-4.083,2.249-6.34   c0.175-0.538-0.174-0.92-0.509-1.533c-0.509-0.825,0.024-2.258,1.612-2.434c1.641,0.293,2.91,0.784,4.815,1.731   c0.928,0.425,0.89,2.433-0.449,2.853c-1.004,0.283-1.24,0.457-1.456,0.98c-0.651,1.864-1.397,3.593-2.146,5.371   c-0.764,2.064-1.523,4.035-2.263,6.345c-0.156,0.482,0.222,0.869,0.571,1.477c0.461,0.824-0.076,2.272-1.641,2.437   c-1.64-0.283-2.923-0.792-4.819-1.698c-0.91-0.442-0.872-2.47,0.456-2.876c1.025-0.287,1.231-0.446,1.44-0.994   C163.343,34.72,164.054,32.957,164.78,31.221"/>
	<path fill-rule="evenodd" clip-rule="evenodd" fill="#003567" d="M28.084,133.033c2.183-0.114,4.327-0.245,6.713-0.48   c0.542-0.048,0.741-0.463,1.113-0.943c0.586-0.675,2.145-0.755,2.928,0.401c0.42,1.361,0.49,2.506,0.42,4.284   c0,0.873-1.858,1.538-2.762,0.661c-0.709-0.684-0.958-0.826-1.524-0.774c-1.938,0.113-3.824,0.165-5.739,0.204   c-2.214,0.145-4.323,0.24-6.717,0.489c-0.538,0.043-0.731,0.511-1.151,0.958c-0.538,0.655-2.113,0.73-2.901-0.387   c-0.405-1.353-0.471-2.508-0.405-4.328c0-0.815,1.854-1.508,2.768-0.613c0.703,0.651,0.958,0.788,1.485,0.745   C24.298,133.118,26.193,133.09,28.084,133.033"/>
	<path fill-rule="evenodd" clip-rule="evenodd" fill="#003567" d="M68.942,207.196c1.273-1.811,2.514-3.535,3.782-5.599   c0.287-0.455,0-0.903-0.151-1.568c-0.293-0.94,0.612-2.229,2.131-1.979c1.579,0.703,2.646,1.481,4.286,2.88   c0.806,0.629,0.255,2.604-1.146,2.637c-1.074,0.053-1.33,0.128-1.665,0.58c-1.107,1.659-2.258,3.131-3.412,4.658   c-1.273,1.82-2.467,3.54-3.763,5.606c-0.278,0.462-0.02,0.909,0.175,1.569c0.249,0.947-0.613,2.226-2.197,1.977   c-1.51-0.698-2.631-1.52-4.23-2.891c-0.787-0.655-0.246-2.58,1.165-2.637c1.018-0.037,1.306-0.117,1.597-0.626   C66.68,210.205,67.783,208.674,68.942,207.196"/>
	<path fill-rule="evenodd" clip-rule="evenodd" fill="#003567" d="M196.308,204.067c1.363,1.738,2.64,3.417,4.216,5.228   c0.362,0.42,0.909,0.284,1.57,0.284c0.98,0.056,1.918,1.253,1.234,2.683c-1.084,1.249-2.192,2.06-3.983,3.225   c-0.844,0.522-2.547-0.522-2.207-1.9c0.288-0.985,0.288-1.273-0.095-1.722c-1.196-1.532-2.295-3.087-3.408-4.615   c-1.358-1.791-2.678-3.465-4.248-5.289c-0.335-0.401-0.868-0.279-1.57-0.279c-0.933-0.037-1.896-1.235-1.237-2.648   c1.115-1.265,2.232-2.091,4.003-3.254c0.855-0.528,2.552,0.532,2.175,1.904c-0.235,1.027-0.235,1.314,0.141,1.721   C194.092,200.979,195.205,202.511,196.308,204.067"/>
	<path fill-rule="evenodd" clip-rule="evenodd" fill="#003567" d="M185.267,210.992c1.476,2.971,2.63,5.027,4.323,7.677   c1.5,0.532,2.268,1.051,2.348,1.635c0.259,1.151-2.395,2.981-3.744,2.594l-17.694-7.369c0.585,1.207,1.113,2.381,1.665,3.583   c0.984,2.014,1.886,3.914,3.04,6.059c0.25,0.461,0.698,0.478,1.273,0.692c0.831,0.298,1.49,1.697,0.792,2.821   c-1.074,0.852-2.093,1.272-3.71,1.857c-0.793,0.245-2.108-1.203-1.642-2.324c0.322-0.86,0.322-1.146,0.077-1.646   c-0.874-1.769-1.65-3.498-2.433-5.229c-0.947-1.983-1.896-3.923-3.012-6.021c0-0.036-0.03-0.036-0.03-0.08h0.03l-1.924-3.103   c-0.788-2.216,0.358-3.334,2.659-2.461l17.001,6.96c-0.538-1.15-1.084-2.315-1.57-3.461c-0.986-1.98-1.9-3.923-3.06-6.021   c-0.241-0.5-0.693-0.5-1.283-0.692c-0.81-0.293-1.465-1.692-0.764-2.801c1.057-0.867,1.845-1.15,3.442-1.739   c1.368-0.534,2.358,1.046,1.9,2.186c-0.326,0.864-0.326,1.155-0.089,1.646C183.748,207.518,184.525,209.253,185.267,210.992"/>
	<path fill-rule="evenodd" clip-rule="evenodd" fill="#003567" d="M95.449,219.885c-1.461,2.971-2.358,5.158-3.441,8.128   c0.504,1.495,0.588,2.382,0.183,2.838c-0.792,0.873-3.8-0.111-4.338-1.306l-5.063-18.52c-0.637,1.197-1.236,2.353-1.825,3.518   c-0.985,1.967-1.932,3.899-2.885,6.1c-0.236,0.482,0,0.864,0.207,1.454c0.297,0.801-0.386,2.2-1.725,2.324   c-1.321-0.288-2.324-0.821-3.744-1.76c-0.712-0.452-0.33-2.404,0.806-2.724c0.91-0.284,1.117-0.448,1.372-0.953   c0.864-1.768,1.735-3.456,2.65-5.103c0.938-1.975,1.891-3.922,2.866-6.104c0-0.038,0-0.038,0.048-0.09v0.052l1.235-3.427   c1.315-1.967,2.853-1.773,3.588,0.584l4.983,17.677c0.59-1.16,1.156-2.27,1.792-3.372c0.933-1.984,1.886-3.88,2.829-6.11   c0.254-0.49-0.047-0.868-0.197-1.442c-0.298-0.816,0.409-2.229,1.72-2.354c1.319,0.34,2.027,0.745,3.508,1.697   c1.24,0.74,0.579,2.466-0.576,2.85c-0.905,0.243-1.118,0.395-1.352,0.899C97.212,216.51,96.344,218.206,95.449,219.885"/>
	<path fill-rule="evenodd" clip-rule="evenodd" fill="#003567" d="M223.056,168.733c2.781,1.778,4.828,2.98,7.675,4.367   c1.523-0.284,2.49-0.284,2.839,0.174c0.787,0.915-0.533,3.804-1.858,4.153l-18.958,2.772c1.084,0.736,2.188,1.486,3.225,2.268   c1.839,1.204,3.673,2.358,5.733,3.579c0.448,0.289,0.858,0.085,1.423-0.027c0.878-0.166,2.203,0.66,2.112,2.009   c-0.442,1.287-1.068,2.196-2.191,3.517c-0.529,0.607-2.428,0.043-2.631-1.164c-0.179-0.91-0.279-1.151-0.726-1.49   c-1.665-1.023-3.239-2.135-4.795-3.216c-1.858-1.188-3.622-2.385-5.701-3.616c0,0-0.042,0-0.071-0.042h0.029l-3.239-1.665   c-1.773-1.522-1.4-3.031,1.023-3.497l18.133-2.758c-1.028-0.698-2.047-1.449-3.083-2.137c-1.849-1.24-3.635-2.395-5.691-3.635   c-0.485-0.282-0.867-0.07-1.48,0.048c-0.868,0.16-2.151-0.66-2.107-1.986c0.462-1.268,0.961-1.943,2.06-3.248   c0.91-1.16,2.559-0.326,2.767,0.901c0.17,0.919,0.274,1.112,0.731,1.442C219.949,166.55,221.499,167.627,223.056,168.733"/>
	<path fill-rule="evenodd" clip-rule="evenodd" fill="#003567" d="M79.726,95.522c-0.614-0.783-0.693-1.15-0.317-1.806   c0.166-0.83,2.155-0.952,2.72-0.283l5.602,10.547h0.528l4.555-10.547c0.579-0.669,2.428-0.547,2.64,0.283   c0.359,0.656,0.679,1.023,0.108,1.806v10.311c0.165,0.783,0.382,0.986,0.782,1.41c0.752,0.574,0.581,1.475-0.486,1.608l-3.85-0.052   c-0.897-0.368-0.731-1.109-0.194-1.594c0.245-0.345,0.782-0.589,0.782-1.283l0.047-4.917l-0.381,0.048l-3.946,7.991l-0.925-0.028   l-0.857,0.028l-4.527-7.991l-0.382-0.048v4.871c0.056,0.702,0.622,0.984,0.872,1.329c0.486,0.485,0.703,1.226-0.25,1.594   l-3.257,0.052c-1.066-0.133-1.226-1.034-0.486-1.608c0.373-0.424,1.033-0.627,1.222-1.41V95.522z"/>
	<path fill-rule="evenodd" clip-rule="evenodd" fill="#003567" d="M237.694,154.4c1.661,0.534,1.971-0.584,2.448-0.25   c0.938,0.703,0.033,3.009-0.623,4.164c-1.362,2.263-0.783,4.407-1.649,5.61c-0.43,0.566-1.161,1.023-2.726,1.023   c-1.518,0.048-1.853-1.442-0.867-1.938c0.838-0.504,1.499-1.273,2.018-2.111c1.074-1.59,1.074-2.669,0-3.126l-4.795-1.401   c-0.421-0.164-1.019-0.202-1.104,0.16l-0.726,2.928c-0.297,1.075,0.538,1.609-0.056,1.934c-0.274,0.231-0.411,0.292-1.806-0.236   c-1.197-0.58-1.118-0.495-1.363-0.66c-0.287-0.17-0.457-0.278-0.505-0.462c-0.225-0.698,0.839-0.609,1.076-1.396l0.825-2.957   c0.094-0.263-0.077-0.546-0.317-0.622l-4.874-1.81c-0.491-0.301-1.664-0.041-1.944,0.863l-0.607,1.97   c-0.326,1.076-0.707,3.136,0.491,4.244c0.951,1.358-0.118,3.06-1.684,1.566c-0.749-1.858-2.97-2.132-2.193-4.121   c1.028-1.811,1.82-6.017,3.14-8.695c0.986-2.06,2.854,0.373,3.961,0.783L237.694,154.4z"/>
	<path fill-rule="evenodd" clip-rule="evenodd" fill="#003567" d="M42.031,189.842c-1.42,0.952-0.75,1.891-1.297,2.075   c-1.108,0.306-2.386-1.769-2.929-3.064c-0.975-2.43-3.039-3.244-3.46-4.706c-0.198-0.689-0.132-1.517,0.826-2.8   c0.909-1.241,2.257-0.577,2.06,0.499c-0.127,0.952,0.132,1.952,0.453,2.923c0.664,1.839,1.49,2.433,2.513,1.91l4.007-2.933   c0.373-0.288,0.793-0.745,0.542-1.042l-1.866-2.353c-0.703-0.896-1.599-0.514-1.509-1.216c0.028-0.33,0-0.504,1.272-1.291   c1.189-0.571,0.938-0.74,1.231-0.864c0.283-0.126,0.533-0.16,0.659-0.126c0.709,0.25,0.128,1.235,0.581,1.857l1.862,2.508   c0.165,0.174,0.481,0.24,0.736,0.089l4.314-2.767c0.594-0.189,1.08-1.268,0.551-2.06l-1.211-1.688   c-0.66-0.91-2.089-2.466-3.654-2.175c-1.688-0.089-2.367-1.947-0.217-2.304c1.867,0.528,3.461-1.034,4.578,0.759   c0.783,1.952,3.672,5.134,5.036,7.803c0.98,2.017-2.061,2.017-3.06,2.678L42.031,189.842z"/>
	<path fill-rule="evenodd" clip-rule="evenodd" fill="#003567" d="M128.75,13.489c6.592,0.137,11.951,4.993,11.951,10.896   c0,5.936-5.359,10.749-11.951,10.919v-3.593c3.093,0.585,5.984-0.873,6.884-3.795c1.075-3.452-1.156-7.737-4.945-9.52   c-0.661-0.282-1.303-0.49-1.939-0.622V13.489z M128.43,13.461c0.08,0,0.193,0,0.32,0.028v4.286   c-3.097-0.565-5.978,0.915-6.889,3.801c-1.065,3.508,1.151,7.76,4.956,9.518c0.613,0.297,1.273,0.49,1.933,0.618v3.593h-0.32   c-6.719,0-12.25-4.908-12.25-10.919C116.18,18.366,121.71,13.461,128.43,13.461"/>
	<path fill-rule="evenodd" clip-rule="evenodd" fill="#003567" d="M195.451,41.203c0.216-1.108,0.485-2.14,1.112-3.051   c1.146-1.485,0.359-2.149-0.716-2.23c-1.562-0.787-2.711-3.041-4.032-3.88c-3.168-1.971-10.018-2.754-14.465,0.953   c-5.153,4.949-3.922,11.706-1.069,14.719c3.267,3.823,6.388,5.027,10.192,4.828c4.201-1.202,2.664-3.046,0.566-2.763   c-3.461,0.703-7.463-0.66-8.627-6.228c-1.062-5.026,2.81-8.779,6.846-9.811c4.003-0.453,5.902,0.75,7.755,3.62   c-0.204,0.986,0.251,2.518,0.088,3.47C193.673,41.858,194.465,41.858,195.451,41.203"/>
	<path fill-rule="evenodd" clip-rule="evenodd" fill="#003567" d="M239.053,147.136c1.089-0.363,1.532-0.618,2.655-0.576   c1.834,0.213,2.008-0.74,1.555-1.678c-0.117-1.66,0.943-4.465,1.004-5.908c0.038-3.579-2.786-9.599-8.24-11.456   c-6.903-1.812-11.594,2.677-13.376,6.26c-2.505,5.281-1.034,9.444,1.084,11.716c0.698,0.661,1.512,0.864,2.423,0.939   c0.575,0.052,1.24,0,1.684,0c0.405,0,0.594,0.127,1.027,0.797c0.618,0.905,2.037,0.566,2.117-0.797   c0.156-1.588,0.193-2.371,0-3.653c-0.505-1.119-1.645-1.119-2.117-0.585c-0.307,0.409-0.481,0.792-0.853,0.792   c-0.788,0.038-1.524,0.038-2.258,0c-3.15-1.656-2.452-7.266,1.362-9.954c4.126-2.871,9.335-1.895,12.32,0.92   c2.423,3.082,2.631,6.341,1.108,9.316c-0.33,0.538-0.467,1.778-1.985,1.854C238.001,146.107,238.001,146.655,239.053,147.136"/>
	<path fill-rule="evenodd" clip-rule="evenodd" fill="#003567" d="M69.476,34.979c-1.023-0.495-1.948-1.046-2.683-1.858   c-1.071-1.486-1.938-0.909-2.296,0.085c-1.174,1.316-3.688,1.843-4.791,2.881c-2.72,2.555-5.238,8.939-2.852,14.234   c3.452,6.262,10.316,6.823,13.938,4.847c4.572-2.135,6.553-4.847,7.289-8.577c-0.033-4.365-2.221-3.38-2.504-1.314   c-0.213,3.592-2.566,7.095-8.255,6.765c-5.108-0.292-7.704-4.988-7.704-9.152c0.658-3.993,2.281-5.483,5.515-6.558   c0.915,0.453,2.528,0.411,3.385,0.835C69.665,36.875,69.833,36.087,69.476,34.979"/>
	<path fill-rule="evenodd" clip-rule="evenodd" fill="#003567" d="M19.914,147.64c-0.661,0.326-0.741,1.399-0.151,1.81   c0.858,1.034,0.999,3.055,1.688,3.994c0.169,0.287,0.423,0.547,0.66,0.829c0.452,0.58,1.032,1.08,1.721,1.439   c0.123,0.084,0.249,0.169,0.424,0.249h0.193c0.51,0.156,1.038,0.246,1.622,0.246c1.594,0,3.041-0.788,3.909-1.934   c1.852-1.438,2.338-4.993,2.975-7.288c0.123-0.208,0.283-2.778,3.413-2.678c0.613,0,1.189,0.155,1.66,0.362   c0.528,0.453,0.938,0.905,1.273,1.363c0.532,1.235,0.782,2.013,0.447,3.456c-0.164,0.793-0.707,1.532-1.192,2.107   c-1.231,2.641,1.726,0.661,2.815,0.533c0.721-0.122,1.098-1.155,0.693-1.688c-0.543-1.249-0.033-2.427-0.462-4.333   c-0.9-2.682-3.004-6.091-6.262-5.945c-1.57,0.127-3.827,1.235-4.983,2.975c-0.038-0.038,0.034,0.043,0,0   c-1.612,2.895-1.075,6.563-2.609,8.75h-0.027c-0.056,0.039-0.056,0.039-0.056,0.085c-0.081,0.086-0.123,0.122-0.17,0.199h0.047   c-0.444,0.778-1.3,1.273-2.259,1.273c-1.074,0-1.984-0.693-2.351-1.637h-0.161c-0.297-0.579-0.452-1.253-0.542-2.107   c-0.081-0.825,0.131-1.655,0.584-2.272C22.436,144.424,20.947,147.234,19.914,147.64"/>
	<path fill-rule="evenodd" clip-rule="evenodd" fill="#003567" d="M73.383,93.4c-0.037-0.542-0.734-0.876-1.15-0.589   c-0.905,0.34-2.226-0.047-3.055,0.161c-0.203,0.089-0.453,0.179-0.703,0.292c-0.489,0.136-0.942,0.409-1.363,0.816   c-0.089,0.057-0.164,0.131-0.239,0.212l-0.043,0.123c-0.249,0.325-0.401,0.66-0.528,1.027c-0.419,1.119-0.25,2.263,0.334,3.14   c0.534,1.609,2.744,2.796,4.112,3.833c0.086,0.118,1.764,0.83,0.957,2.933c-0.175,0.444-0.377,0.774-0.627,1.028   c-0.452,0.24-0.82,0.443-1.202,0.523c-0.934,0.094-1.504,0.057-2.424-0.523c-0.466-0.335-0.816-0.821-1.127-1.334   c-1.39-1.48-0.763,0.999-0.98,1.777c-0.085,0.552,0.499,1.033,0.957,0.863c0.938-0.028,1.598,0.584,2.956,0.792   c2.027,0.043,4.786-0.58,5.403-2.791c0.335-1.117,0.08-2.942-0.74-4.139c0,0-0.043,0.042-0.043,0   c-1.489-1.783-4.045-2.344-5.153-3.915h0.047c-0.047-0.041-0.047-0.041-0.08-0.041c-0.042-0.076-0.042-0.123-0.071-0.162h-0.056   c-0.372-0.494-0.494-1.192-0.292-1.814c0.292-0.735,0.943-1.197,1.64-1.197l0.048-0.123c0.456-0.038,0.962,0,1.532,0.169   c0.537,0.161,1.019,0.487,1.358,0.939C74.916,95.862,73.436,94.169,73.383,93.4"/>
	<path fill-rule="evenodd" clip-rule="evenodd" fill="#003567" d="M118.684,227.641c-0.642,2.277-1.019,4.587-1.509,6.974   c-0.043,0.531,0.405,0.83,0.816,1.358c0.659,0.749,0.372,2.271-1.108,2.683c-1.689,0.041-3.051-0.24-5.088-0.785   c-0.981-0.248-1.297-2.266-0.08-2.889c0.953-0.489,1.165-0.697,1.245-1.226c0.792-4.588,4.913-14.192-1.679-16.078   c-5.826-1.622-8.015,1.812-8.962,6.864c-0.359,2.198-0.99,4.216-1.439,6.531c-0.113,0.523,0.128,0.858,0.378,1.4   c0.278,0.782,0,2.433-1.032,2.546c-1.066,0.126-1.854-0.405-3.089-1.103c-0.579-0.338-0.538-2.354,0.287-2.886   c0.666-0.378,0.817-0.585,0.948-1.113c0.396-1.877,1.118-3.636,1.354-5.497c0.896-6.215,4.006-11.287,8.962-11.043   c2.376-0.037,4.471,0.616,6.748,1.65C120.344,217.258,119.56,224.421,118.684,227.641"/>
	<path fill-rule="evenodd" clip-rule="evenodd" fill="#003567" d="M86.496,30.642l2.314,1.976l-2.314,0.989v3.386   c1.291-0.575,2.805-1.235,3.828-1.687l0.042,0.117c0.421-0.16,0.74-0.288,1.033-0.4c0.816,0.9,4.163,3.663,3.347,4.855   c-0.579,0.863-0.46,2.184,0.816,1.698l6.342-2.767c1.358-0.538,2.286-1.768-0.853-2.31c-0.864-0.114-1.364-0.326-2.095-1.137   l-12.46-9.793V30.642z M86.496,45.445v-1.725c0.835,0.322,1.32,1.113,0.254,1.603L86.496,45.445z M84.392,34.564l-0.15-5.898   l2.254,1.975v-5.073l-1.769-1.386c-1.617-1.659-4.002-0.5-3.917,2.013c0.245,5.559,0.032,11.164,0.575,16.695   c0.127,1.108-0.076,1.651-0.575,2.348c-0.463,0.741-0.702,1.288-0.745,1.688v0.335c0.127,0.656,1.017,0.613,1.9,0.245l4.531-2.061   v-1.725c-0.124-0.09-0.278-0.132-0.453-0.17c-1.395-0.212-1.14-4.487-1.273-5.728c0.448-0.249,1.066-0.542,1.726-0.83v-3.386   L84.392,34.564z"/>
	<path fill-rule="evenodd" clip-rule="evenodd" fill="#003567" d="M204.729,52.74l2.712-1.155l-2.019,5.69l-0.693-0.692v15.492   c0.942,0.778,2.103,0.778,1.471-1.98c-0.152-0.83-0.152-1.4,0.349-2.395l5.256-17.276c0.124-0.282,0.208-0.519,0.251-0.81V49.03   c-0.194-1.406-1.769-2.269-3.541-1.523c-1.245,0.537-2.524,1.07-3.786,1.611V52.74z M202.004,53.861l2.725-1.121v-3.622   c-3.891,1.561-7.85,3.089-11.547,4.975c-1.042,0.542-1.565,0.504-2.428,0.339c-1.726-0.401-2.38-0.085-2.432,0.458v0.118   c0.052,0.405,0.367,0.862,0.786,1.272l3.744,3.674c0.985,0.985,1.612-0.245,1.349-1.282c-0.278-1.397,3.79-2.716,4.917-3.259   c1.075,0.92,3.125,3.018,4.323,4.248l-0.089,0.09c0.344,0.33,0.594,0.616,0.797,0.872c-0.585,1.061-1.952,5.148-3.338,4.856   c-1.038-0.259-2.231,0.334-1.268,1.353l4.855,4.919c0.081,0.127,0.203,0.235,0.331,0.324V56.583L202.004,53.861z"/>
	<path fill-rule="evenodd" clip-rule="evenodd" fill="#003567" d="M229.911,88.116l2.975,0.117l-2.975,2.923v5.988l7.378-8.086   c1.812-1.452,0.831-3.918-1.687-4.04c-1.905-0.075-3.804-0.156-5.691-0.283V88.116z M226.989,87.951l2.922,0.165v-3.381   c-3.669-0.25-7.341-0.467-11.004-0.372c-1.166,0-1.608-0.259-2.315-0.792c-2.519-1.934-2.834-0.411-2.307,0.99l1.773,4.912   c0.487,1.316,1.567,0.486,1.821-0.542c0.325-1.391,4.573-0.815,5.809-0.862c0.574,1.282,1.517,4.119,2.093,5.733l-0.114,0.034   c0.114,0.418,0.241,0.786,0.322,1.083c-0.978,0.773-3.961,3.871-5.106,2.962c-0.836-0.657-2.142-0.614-1.726,0.701l2.253,6.507   c0.433,1.404,1.621,2.39,2.362-0.651c0.203-0.876,0.407-1.362,1.306-2.064l4.833-5.23v-5.988l-1.32,1.316L226.989,87.951z"/>
	<path fill-rule="evenodd" clip-rule="evenodd" fill="#003567" d="M30.471,98.742l-1.382-1.23v4.578   c1.71,1.608,3.488,3.126,5.337,4.569c0.919,0.712,1.112,1.203,1.33,2.06c0.692,3.094,1.89,2.104,2.38,0.703l1.74-4.942   c0.447-1.324-0.91-1.366-1.74-0.711c-1.155,0.863-4.074-2.263-5.049-3.042c0.363-1.362,1.381-4.124,1.998-5.728l0.133,0.038   c0.16-0.415,0.277-0.783,0.419-1.071c1.235,0.047,5.516-0.462,5.809,0.953c0.241,1.023,1.263,1.843,1.805,0.571l2.391-6.474   c0.552-1.362,0.255-2.876-2.268-0.985c-0.683,0.527-1.197,0.773-2.301,0.734L29.089,90.5v3.989l2.98-0.279L30.471,98.742z    M29.089,97.512l-3.019-2.725l3.019-0.297V90.5l-5.914,0.864c-2.305,0-3.134,2.522-1.259,4.21c2.416,2.107,4.768,4.36,7.173,6.515   V97.512z"/>
	<path fill-rule="evenodd" clip-rule="evenodd" fill="#003567" d="M60.645,192.449c-4.281,1.764-9.114,3.946-12.933,6.011   c-1.16,0.629-0.41,2.971-1.862,1.41l-2.848-3.304c-0.938-0.991-1.146-2.473,1.782-1.731c0.817,0.165,1.363,0.204,2.358-0.287   l15.733-6.611c2.314-0.947,3.342,0.544,2.343,2.773l-5.554,16.948c-0.339,1.016-0.532,1.554-0.41,2.382   c0.325,2.971-1.074,2.603-1.938,1.538l-3.094-3.306c-1.979-1.854,0.497-1.367,0.954-2.357   C57.364,201.559,58.838,196.941,60.645,192.449"/>
	<path fill-rule="evenodd" clip-rule="evenodd" fill="#003567" d="M86.878,114.452l1.48,3.131h-1.48v1.895h1.683v0.09   c0.282,0,0.49,0.046,0.697,0.046c0.241,0.741,1.447,3.122,0.702,3.579c-0.532,0.363-0.828,1.151,0.043,1.193h4.282   c0.551,0.033,1.027-0.122,1.079-0.453v-0.079c-0.052-0.26-0.344-0.571-0.953-0.996c-0.452-0.272-0.706-0.531-0.938-1.202   l-5.322-9.934c-0.26-0.641-0.783-0.947-1.273-0.947V114.452z M85.34,117.583l1.41-3.428l0.128,0.297v-3.677   c-0.594,0-1.175,0.371-1.49,1.117c-1.246,3.253-2.754,6.427-3.787,9.742c-0.254,0.655-0.513,0.895-0.957,1.187   c-0.66,0.41-0.918,0.735-0.939,0.991v0.079c0.021,0.326,0.51,0.495,1.019,0.495l3.301-0.042c0.873-0.042,0.623-0.825,0.047-1.202   c-0.749-0.439,0.462-2.876,0.698-3.574c0.49-0.043,1.273-0.09,2.108-0.09v-1.895H85.34z"/>
	<path fill-rule="evenodd" clip-rule="evenodd" fill="#003567" d="M156.896,224.104l-1.352,5.771l-1.024-1.523v6.384   c1.274,1.104,3.212,0.462,3.698-1.649c1.197-5.394,2.809-10.797,3.663-16.29c0.183-1.104,0.509-1.557,1.169-2.142   c2.343-2.097,0.905-2.719-0.547-2.475l-5.182,0.91c-1.376,0.25-0.744,1.452,0.194,1.872c1.33,0.565,0,4.69-0.194,5.874   c-0.674,0.165-1.691,0.378-2.801,0.542v3.084L156.896,224.104z M154.52,228.353l-2.403-3.475l2.403-0.415v-3.084   c-1.131,0.203-2.319,0.373-3.177,0.495l-0.042-0.122c-0.426,0.065-0.783,0.122-1.123,0.122c-0.57-1.075-3.045-4.578-1.98-5.526   c0.788-0.696,0.976-2.026-0.367-1.851l-6.799,1.085c-0.787,0.069-1.434,0.356-1.518,0.805v0.25   c0.084,0.372,0.579,0.868,1.725,1.357c0.825,0.376,1.278,0.675,1.764,1.707l10.919,14.339c0.175,0.286,0.382,0.493,0.598,0.696   V228.353z"/>
	<path fill-rule="evenodd" clip-rule="evenodd" fill="#003567" d="M39.999,63.868c1.777-0.039,3.742,0.414,5.941,1.687   c3.946,1.938,5.487,4.414,5.633,7.147v0.986c-0.235,4.164-3.206,8.7-5.1,12.565c-1.783,2.645-2.429-1.188-3.514-1.947   c-0.928-0.434-1.969-0.942-2.96-1.428v-4.117c1.495,0.721,3.003,1.434,4.535,2.216c0.986,0.283,1.66,0.133,1.939-0.5   c0.669-1.517,1.597-2.918,1.937-4.521c0.703-3.188-1.367-5.361-4.413-6.648c-1.443-0.735-2.758-1.155-3.998-1.231V63.868z    M37.23,81.472c-2.06-0.995-4.196-2.135-6.506-3.144c-1.084-0.406-3.432,0.887-3.512-1.311V76.69v-0.079   c0.409-1.32,1.371-2.716,2.021-4.036c0.383-0.746,4.174-8.454,10.765-8.708v4.209c-1.693-0.126-3.248,0.246-4.739,1.02   c-1.81,1.08-2.644,2.569-3.507,3.809c-0.49,0.659-0.41,1.305,0.25,1.928c2.763,1.395,5.36,2.631,7.996,3.927v4.117   C39.05,82.421,38.103,81.935,37.23,81.472"/>
	<path fill-rule="evenodd" clip-rule="evenodd" fill="#003567" d="M28.495,126.366c-0.251,0-0.501,0.033-0.699,0.033v-3.663   c2.221-0.128,4.461-0.207,6.847-0.33c0.994-0.208,1.485-0.702,1.437-1.353c-0.169-1.646-0.042-3.352-0.495-4.918   c-0.905-3.143-3.753-4.035-7.09-3.668c-0.251,0-0.501,0-0.699,0.057v-4.295c0.198,0,0.416,0,0.632,0.037   c11.57-0.584,10.037,10.312,10.41,17.865c-0.24,3.125-2.71,0.103-3.989-0.066C32.822,126.234,30.432,126.325,28.495,126.366    M27.796,126.399c-2.102,0.133-4.28,0.133-6.516,0.378c-1.239,0.132-2.804,2.644-3.955,0.165c-0.282-1.325-0.122-3.042-0.161-4.536   c-0.042-1.004-0.669-14.102,10.632-14.177v4.295c-3.347,0.193-5.525,1.669-7.039,3.994c-1.093,1.763-1.093,3.503-1.244,5.016   c-0.095,0.802,0.292,1.324,1.155,1.58c2.475-0.137,4.776-0.256,7.128-0.378V126.399z"/>
	<path fill-rule="evenodd" clip-rule="evenodd" fill="#003567" d="M240.953,106.57c0.594-0.402,1.032-0.567,1.434-0.567   c1.329,0.042,1.122,3.3,1.079,4.319l-0.033,6.317c-0.208,1.481-1.206,2.637-2.48,3.334v-4.441c0.33-0.509,0.505-1.08,0.505-1.692   v-2.641l-0.505,0.056V106.57z M240.953,122.076h0.038v0.033h-0.038V122.076z M239.968,107.442c0.363-0.368,0.708-0.66,0.985-0.872   v4.685l-6.223,0.519v2.066c0,1.768,1.452,3.206,3.187,3.206h0.358c1.118,0,2.151-0.618,2.678-1.514v4.441   c-0.655,0.378-1.368,0.617-2.093,0.703c-2.272,0.217-3.998-0.788-5.635-2.556c-2.658,2.272-6.445,2.429-8.297,6.718   c-0.293,0.618,0.49,0.911-0.826,1.038c-2.353-0.17-0.546-5.286,0.779-6.469c1.946-1.745,4.493-2.933,6.751-4.384   c1.254-0.99,0.627-3.249,0.038-3.249c-2.183,0.118-3.616,0.165-6.003,0.406c-0.541,0.047-0.739,0.416-1.16,0.867   c-0.56,0.579-2.13,0.665-2.889-0.367c-0.373-1.236-0.373-1.99-0.283-3.636c0.042-1.362,1.895-1.641,2.767-0.806   c0.66,0.566,0.91,0.688,1.476,0.636C230.377,108.597,235.267,108.238,239.968,107.442 M240.953,122.076v0.033V122.076z"/>
	<path fill-rule="evenodd" clip-rule="evenodd" fill="#003567" d="M70.792,109.827l1.325,0.089c1.512,0.374,2.465,1.858,2.498,3.291   c0,1.08-0.16,1.985-0.849,2.726l-0.056,0.118c1.532,1.079,2.319,2.404,2.319,4.144c-0.042,1.636-1.188,4.107-3.018,4.107   l-2.219,0.042v-2.71c1.023,0,1.895-0.251,1.781-1.614c-0.128-1.234-0.758-2.027-1.781-2.319v-2.343   c0.579-0.213,0.829-0.735,0.913-1.599c0.11-1.042-0.296-1.452-0.913-1.622V109.827z M65.643,111.727   c-0.674-0.735-0.557-1.268-0.51-1.645c0.128-0.906,2.037-0.538,2.731-0.495l2.928,0.24v2.31c-0.491-0.113-1.127-0.113-1.722-0.174   v3.484c0.745,0.118,1.301,0.085,1.722-0.089v2.343c-0.491-0.151-1.067-0.151-1.787-0.076l0.065,3.957   c0.515,0,1.141,0.052,1.722,0.052v2.71h-2.678c-1.028,0.075-3.259,0.41-3.39-0.579c-0.039-0.044-0.039-0.077-0.039-0.124v-0.202   c0.085-1.033,0.958-2.136,1.01-4.206L65.643,111.727z"/>
	<path fill-rule="evenodd" clip-rule="evenodd" fill="#003567" d="M33.813,174.868c-0.043,0.184-0.123,0.344-0.204,0.467v-4.371   l3.589-1.777l-0.75-1.805c-0.448-1.142-1.599-1.816-2.839-1.778v-3.197c0.906,0.075,1.816,0.315,2.759,0.731   c1.655-2.966,5.148-4.535,5.366-8.944c0-0.637-0.792-0.637,0.358-1.192c2.239-0.742,2.352,4.318,1.533,5.878   c-1.189,2.189-3.132,4.206-4.701,6.323c-0.812,1.305,0.585,3.05,1.074,2.842c1.986-0.952,3.296-1.537,5.441-2.649   c0.501-0.245,0.537-0.651,0.789-1.141c0.323-0.749,1.714-1.406,2.752-0.829c0.834,0.951,1.084,1.611,1.537,3.049   c0.439,1.189-1.156,2.137-2.244,1.778c-0.863-0.287-1.114-0.287-1.608-0.062C42.342,170.257,37.896,172.459,33.813,174.868    M33.609,175.335c-0.485,1.027-0.994,1.532-1.498,1.744c-1.254,0.448-2.173-2.451-2.551-3.362l-1.764-4.479v-3.672   c0.542-1.019,1.401-1.947,2.471-2.514c1.117-0.57,2.221-0.782,3.342-0.645v3.197c-0.405,0-0.787,0.085-1.197,0.249l-0.343,0.127   c-1.637,0.661-2.453,2.424-1.839,3.957l0.942,2.266l2.437-1.239V175.335z M27.796,162.642l0.039-0.052h-0.039V162.642z    M27.796,169.238l-0.376-0.947c-0.207-0.943-0.034-1.905,0.376-2.725V169.238z M27.796,162.59v0.052V162.59z"/>
	<path fill="#003567" d="M297.006,61.336c0-37.271-3.162-38.327-19.693-40.789l-5.977-1.051c-2.462-2.461-2.114-8.44,0.706-9.845   c14.06,0.703,29.887,1.057,45.353,1.057c15.825,0,31.648-0.354,47.123-1.057c2.815,1.405,3.164,7.384,0.703,9.845l-7.742,1.051   c-16.515,2.462-19.683,3.518-19.683,40.789v80.528c0,48.521,14.765,89.313,63.644,89.313c46.058,0,65.056-34.823,65.056-88.268   V98.964c0-26.374-0.364-59.077-6.691-69.275c-3.165-5.271-8.789-7.732-17.583-9.142l-7.029-1.051   c-3.169-2.461-2.814-8.788,0.703-9.845c11.956,0.703,25.322,1.057,39.029,1.057c14.77,0,24.263-0.354,37.277-1.057   c2.809,1.76,3.514,7.384,0.701,9.845l-7.738,1.755c-6.675,1.409-13.013,2.814-15.47,8.438c-4.926,10.553-4.926,41.491-4.926,69.275   v41.849c0,32-4.912,61.529-23.205,81.212c-18.285,19.704-44.65,26.38-68.917,26.38c-33.055,0-56.267-7.025-72.44-22.5   c-15.816-15.124-23.201-39.741-23.201-75.253V61.336z"/>
	<path fill="#003567" d="M744.388,69.775c-2.459,2.815-8.787,3.167-11.246,0.707c-5.98-22.156-21.803-51.334-68.223-51.334   c-44.654,0-89.67,31.64-89.67,103.73c0,74.889,46.773,111.466,92.135,111.466c44.314,0,63.65-29.542,73.488-52.399   c3.17-3.159,8.789-1.754,10.551,1.409c-2.461,23.556-11.945,46.767-16.877,53.452c-4.207,0.703-8.443,2.107-12.309,3.157   c-7.73,2.457-32.002,8.441-54.854,8.441c-34.811,0-64.695-7.025-90.021-23.566c-28.486-18.633-49.939-50.627-49.939-96.685   c0-41.152,18.293-73.146,44.32-93.19c26.014-19.693,61.533-29.886,97.055-29.886c20.029,0,44.293,3.517,60.826,7.736   c4.213,1.058,6.684,1.401,9.854,2.108C740.173,23.008,740.872,43.758,744.388,69.775"/>
	<path fill="#003567" d="M852.565,156.631c-9.129,0-8.77,0-11.947,9.486L826.2,208.323c-7.035,20.745-5.619,21.798,7.383,23.556   l10.213,1.75c2.461,2.47,2.102,8.793-0.717,10.207c-11.25-0.697-22.85-0.697-37.268-1.058c-11.607,0-22.506,0.36-34.801,1.058   c-2.463-1.759-2.834-7.029-0.371-10.207l10.553-1.75c10.201-1.413,14.078-4.572,19.352-16.176   c4.221-9.138,9.844-23.909,17.227-42.891l48.164-125.188c4.576-11.254,7.744-19.698,6.688-25.668   c12.307-2.46,23.914-16.878,24.613-16.878c2.807,0,4.568,1.055,5.977,2.815c5.637,15.817,10.191,32.348,15.822,48.166   l50.629,147.332c8.098,23.564,9.854,26.021,27.775,29.185l5.285,1.053c2.816,2.47,2.816,8.448,0.348,10.207   c-14.418-0.697-27.432-1.058-45.715-1.058c-15.117,0-30.588,0.708-42.895,1.058c-2.811-1.759-3.162-8.085-1.059-10.207l7.734-1.053   c12.662-1.398,13.721-3.508,9.146-18.632l-16.521-47.827c-3.518-9.486-4.574-9.486-14.418-9.486H852.565z M894.772,140.813   c9.844,0,11.252-0.716,8.439-9.15l-14.775-42.199c-5.971-18.632-8.082-25.313-9.838-27.774h-0.705   c-1.402,2.461-4.215,11.249-10.553,27.774l-14.775,41.142c-3.857,10.207-2.803,10.207,5.641,10.207H894.772z"/>
	<path fill="#003462" d="M0,289.005c2.485-0.415,5.739-0.77,9.882-0.77c5.089,0,8.816,1.184,11.183,3.313   c2.19,1.894,3.492,4.792,3.492,8.344c0,3.609-1.065,6.45-3.077,8.521c-2.722,2.899-7.16,4.379-12.19,4.379   c-1.538,0-2.959-0.059-4.142-0.354v15.977H0V289.005z M5.148,308.236c1.124,0.296,2.544,0.414,4.26,0.414   c6.214,0,10.001-3.019,10.001-8.521c0-5.267-3.728-7.811-9.409-7.811c-2.248,0-3.965,0.178-4.852,0.414V308.236z"/>
	<path fill="#003462" d="M55.746,313.857c0,10.592-7.338,15.208-14.261,15.208c-7.752,0-13.729-5.681-13.729-14.734   c0-9.586,6.273-15.208,14.202-15.208C50.183,299.123,55.746,305.1,55.746,313.857 M33.022,314.153   c0,6.271,3.609,11.006,8.698,11.006c4.971,0,8.699-4.675,8.699-11.124c0-4.853-2.426-11.007-8.58-11.007   C35.686,303.028,33.022,308.709,33.022,314.153"/>
	<path fill="#003462" d="M62.317,307.525c0-2.958-0.059-5.385-0.237-7.751h4.616l0.295,4.733h0.119   c1.42-2.722,4.734-5.385,9.468-5.385c3.964,0,10.118,2.367,10.118,12.189v17.102h-5.207v-16.51c0-4.615-1.716-8.462-6.628-8.462   c-3.431,0-6.094,2.427-6.982,5.326c-0.236,0.65-0.355,1.538-0.355,2.426v17.22h-5.207V307.525z"/>
	<path fill="#003462" d="M101.197,291.549v8.226h7.456v3.963h-7.456v15.445c0,3.551,1.006,5.563,3.905,5.563   c1.361,0,2.367-0.178,3.018-0.354l0.237,3.905c-1.006,0.414-2.604,0.71-4.616,0.71c-2.426,0-4.378-0.77-5.621-2.189   c-1.48-1.539-2.012-4.083-2.012-7.456v-15.623H91.67v-3.963h4.438v-6.864L101.197,291.549z"/>
	<path fill="#003462" d="M120.312,291.727c0.059,1.775-1.242,3.195-3.313,3.195c-1.835,0-3.136-1.42-3.136-3.195   c0-1.835,1.36-3.255,3.254-3.255C119.07,288.472,120.312,289.892,120.312,291.727 M114.513,299.774h5.207v28.64h-5.207V299.774z"/>
	<path fill="#003462" d="M128.893,328.414v-24.676h-4.023v-3.964h4.023v-1.539c0-7.574,4.438-12.485,12.486-12.485   c2.662,0,5.799,0.828,7.278,1.894l-1.479,3.965c-1.243-0.888-3.492-1.657-6.036-1.657c-5.503,0-7.101,3.847-7.101,8.402v1.421   h16.628v28.64h-5.148v-24.676h-11.48v24.676H128.893z"/>
	<path fill="#003462" d="M179.727,327.349c-1.361,0.71-4.379,1.657-8.225,1.657c-8.639,0-14.261-5.858-14.261-14.616   c0-8.816,6.036-15.207,15.385-15.207c3.078,0,5.799,0.769,7.22,1.479l-1.184,4.024c-1.243-0.71-3.195-1.361-6.036-1.361   c-6.568,0-10.118,4.853-10.118,10.829c0,6.627,4.26,10.71,9.941,10.71c2.959,0,4.911-0.769,6.391-1.42L179.727,327.349z"/>
	<path fill="#003462" d="M191.624,291.727c0.059,1.775-1.243,3.195-3.314,3.195c-1.834,0-3.136-1.42-3.136-3.195   c0-1.835,1.361-3.255,3.254-3.255C190.381,288.472,191.624,289.892,191.624,291.727 M185.825,299.774h5.207v28.64h-5.207V299.774z"/>
	<path fill="#003462" d="M215.531,328.414l-0.414-3.609h-0.178c-1.597,2.248-4.675,4.261-8.758,4.261   c-5.798,0-8.757-4.083-8.757-8.226c0-6.923,6.154-10.71,17.219-10.651v-0.592c0-2.367-0.651-6.627-6.509-6.627   c-2.663,0-5.444,0.828-7.455,2.13l-1.184-3.432c2.367-1.539,5.799-2.545,9.409-2.545c8.757,0,10.887,5.977,10.887,11.717v10.71   c0,2.485,0.119,4.911,0.474,6.864H215.531z M214.762,313.798c-5.681-0.118-12.131,0.888-12.131,6.45   c0,3.373,2.249,4.971,4.912,4.971c3.727,0,6.094-2.367,6.923-4.793c0.177-0.532,0.296-1.124,0.296-1.657V313.798z"/>
	<path fill="#003462" d="M246.069,288.531v23.61c0,8.935,3.964,12.722,9.29,12.722c5.918,0,9.705-3.905,9.705-12.722v-23.61h5.207   v23.255c0,12.249-6.45,17.279-15.09,17.279c-8.165,0-14.32-4.675-14.32-17.042v-23.492H246.069z"/>
	<path fill="#003462" d="M279.032,307.525c0-2.958-0.06-5.385-0.237-7.751h4.616l0.296,4.733h0.118   c1.42-2.722,4.734-5.385,9.468-5.385c3.964,0,10.118,2.367,10.118,12.189v17.102h-5.207v-16.51c0-4.615-1.716-8.462-6.628-8.462   c-3.431,0-6.094,2.427-6.982,5.326c-0.236,0.65-0.355,1.538-0.355,2.426v17.22h-5.207V307.525z"/>
	<path fill="#003462" d="M317.676,291.727c0.059,1.775-1.243,3.195-3.313,3.195c-1.835,0-3.137-1.42-3.137-3.195   c0-1.835,1.361-3.255,3.255-3.255C316.433,288.472,317.676,289.892,317.676,291.727 M311.877,299.774h5.207v28.64h-5.207V299.774z"/>
	<path fill="#003462" d="M327.736,299.774l5.622,16.095c0.946,2.604,1.715,4.971,2.307,7.338h0.178   c0.651-2.367,1.479-4.734,2.426-7.338l5.562-16.095h5.444l-11.243,28.64h-4.97l-10.888-28.64H327.736z"/>
	<path fill="#003462" d="M356.498,315.041c0.119,7.041,4.616,9.941,9.823,9.941c3.728,0,5.977-0.651,7.929-1.479l0.888,3.728   c-1.834,0.828-4.971,1.775-9.527,1.775c-8.817,0-14.083-5.799-14.083-14.438s5.089-15.444,13.432-15.444   c9.349,0,11.835,8.226,11.835,13.491c0,1.065-0.118,1.894-0.177,2.427H356.498z M371.765,311.313   c0.059-3.313-1.361-8.462-7.219-8.462c-5.266,0-7.574,4.853-7.989,8.462H371.765z"/>
	<path fill="#003462" d="M383.248,308.709c0-3.373-0.059-6.272-0.237-8.935h4.556l0.178,5.621h0.237   c1.302-3.847,4.438-6.272,7.929-6.272c0.592,0,1.006,0.06,1.479,0.178v4.911c-0.532-0.118-1.065-0.178-1.775-0.178   c-3.669,0-6.272,2.781-6.982,6.687c-0.119,0.711-0.237,1.539-0.237,2.427v15.267h-5.148V308.709z"/>
	<path fill="#003462" d="M401.889,323.089c1.539,1.006,4.261,2.07,6.864,2.07c3.787,0,5.563-1.894,5.563-4.26   c0-2.485-1.48-3.847-5.326-5.267c-5.148-1.835-7.574-4.675-7.574-8.106c0-4.616,3.728-8.403,9.882-8.403   c2.899,0,5.444,0.828,7.042,1.775l-1.303,3.787c-1.124-0.71-3.195-1.657-5.857-1.657c-3.078,0-4.793,1.775-4.793,3.905   c0,2.367,1.715,3.433,5.443,4.853c4.971,1.894,7.516,4.379,7.516,8.64c0,5.029-3.906,8.58-10.711,8.58   c-3.136,0-6.036-0.77-8.048-1.953L401.889,323.089z"/>
	<path fill="#003462" d="M431.834,291.727c0.059,1.775-1.242,3.195-3.313,3.195c-1.835,0-3.136-1.42-3.136-3.195   c0-1.835,1.36-3.255,3.254-3.255C430.592,288.472,431.834,289.892,431.834,291.727 M426.035,299.774h5.207v28.64h-5.207V299.774z"/>
	<path fill="#003462" d="M464.617,286.4v34.617c0,2.544,0.059,5.443,0.237,7.396h-4.675l-0.237-4.971h-0.118   c-1.598,3.195-5.089,5.622-9.764,5.622c-6.923,0-12.249-5.858-12.249-14.558c-0.059-9.526,5.859-15.385,12.841-15.385   c4.379,0,7.338,2.071,8.639,4.379h0.119V286.4H464.617z M459.41,311.432c0-0.651-0.06-1.539-0.237-2.188   c-0.769-3.315-3.61-6.037-7.515-6.037c-5.385,0-8.58,4.734-8.58,11.065c0,5.799,2.84,10.592,8.462,10.592   c3.491,0,6.686-2.308,7.633-6.213c0.177-0.71,0.237-1.42,0.237-2.249V311.432z"/>
	<path fill="#003462" d="M489.119,328.414l-0.414-3.609h-0.178c-1.597,2.248-4.675,4.261-8.758,4.261   c-5.798,0-8.757-4.083-8.757-8.226c0-6.923,6.154-10.71,17.219-10.651v-0.592c0-2.367-0.651-6.627-6.509-6.627   c-2.663,0-5.444,0.828-7.455,2.13l-1.184-3.432c2.367-1.539,5.799-2.545,9.409-2.545c8.757,0,10.887,5.977,10.887,11.717v10.71   c0,2.485,0.118,4.911,0.474,6.864H489.119z M488.35,313.798c-5.681-0.118-12.131,0.888-12.131,6.45   c0,3.373,2.249,4.971,4.912,4.971c3.727,0,6.094-2.367,6.923-4.793c0.177-0.532,0.296-1.124,0.296-1.657V313.798z"/>
	<path fill="#003462" d="M526.52,286.4v34.617c0,2.544,0.059,5.443,0.236,7.396h-4.675l-0.236-4.971h-0.119   c-1.598,3.195-5.089,5.622-9.764,5.622c-6.922,0-12.249-5.858-12.249-14.558c-0.059-9.526,5.858-15.385,12.84-15.385   c4.379,0,7.338,2.071,8.64,4.379h0.118V286.4H526.52z M521.312,311.432c0-0.651-0.059-1.539-0.236-2.188   c-0.77-3.315-3.609-6.037-7.516-6.037c-5.385,0-8.58,4.734-8.58,11.065c0,5.799,2.841,10.592,8.462,10.592   c3.491,0,6.687-2.308,7.634-6.213c0.178-0.71,0.236-1.42,0.236-2.249V311.432z"/>
	<path fill="#003462" d="M575.757,327.112c-1.894,0.946-5.681,1.894-10.533,1.894c-11.243,0-19.705-7.101-19.705-20.179   c0-12.486,8.462-20.947,20.829-20.947c4.972,0,8.107,1.065,9.468,1.775l-1.242,4.201c-1.953-0.946-4.734-1.656-8.048-1.656   c-9.35,0-15.563,5.977-15.563,16.45c0,9.764,5.621,16.036,15.326,16.036c3.136,0,6.331-0.651,8.402-1.657L575.757,327.112z"/>
	<path fill="#003462" d="M597.478,328.414l-0.415-3.609h-0.176c-1.599,2.248-4.675,4.261-8.758,4.261   c-5.8,0-8.758-4.083-8.758-8.226c0-6.923,6.153-10.71,17.22-10.651v-0.592c0-2.367-0.652-6.627-6.51-6.627   c-2.662,0-5.443,0.828-7.456,2.13l-1.183-3.432c2.366-1.539,5.799-2.545,9.408-2.545c8.758,0,10.888,5.977,10.888,11.717v10.71   c0,2.485,0.117,4.911,0.474,6.864H597.478z M596.709,313.798c-5.681-0.118-12.131,0.888-12.131,6.45   c0,3.373,2.249,4.971,4.911,4.971c3.729,0,6.095-2.367,6.924-4.793c0.178-0.532,0.296-1.124,0.296-1.657V313.798z"/>
	<path fill="#003462" d="M616.18,291.549v8.226h7.456v3.963h-7.456v15.445c0,3.551,1.006,5.563,3.905,5.563   c1.361,0,2.366-0.178,3.019-0.354l0.236,3.905c-1.006,0.414-2.604,0.71-4.615,0.71c-2.427,0-4.379-0.77-5.622-2.189   c-1.479-1.539-2.012-4.083-2.012-7.456v-15.623h-4.438v-3.963h4.438v-6.864L616.18,291.549z"/>
	<path fill="#003462" d="M655.059,313.857c0,10.592-7.337,15.208-14.261,15.208c-7.751,0-13.728-5.681-13.728-14.734   c0-9.586,6.272-15.208,14.201-15.208C649.497,299.123,655.059,305.1,655.059,313.857 M632.336,314.153   c0,6.272,3.61,11.006,8.699,11.006c4.971,0,8.698-4.675,8.698-11.124c0-4.853-2.426-11.007-8.58-11.007   S632.336,308.709,632.336,314.153 M648.846,287.407l-7.219,8.461h-3.729l5.207-8.461H648.846z"/>
	<rect x="661.631" y="286.4" fill="#003462" width="5.208" height="42.014"/>
	<path fill="#003462" d="M681.396,291.727c0.059,1.775-1.243,3.195-3.314,3.195c-1.834,0-3.136-1.42-3.136-3.195   c0-1.835,1.36-3.255,3.254-3.255C680.153,288.472,681.396,289.892,681.396,291.727 M675.597,299.774h5.208v28.64h-5.208V299.774z"/>
	<path fill="#003462" d="M709.859,327.349c-1.36,0.71-4.379,1.657-8.225,1.657c-8.64,0-14.261-5.858-14.261-14.616   c0-8.816,6.035-15.207,15.385-15.207c3.077,0,5.799,0.769,7.219,1.479l-1.184,4.024c-1.242-0.71-3.195-1.361-6.035-1.361   c-6.568,0-10.119,4.853-10.119,10.829c0,6.627,4.261,10.71,9.941,10.71c2.959,0,4.911-0.769,6.391-1.42L709.859,327.349z"/>
	<path fill="#003462" d="M731.815,328.414l-0.415-3.609h-0.176c-1.599,2.248-4.675,4.261-8.758,4.261   c-5.8,0-8.758-4.083-8.758-8.226c0-6.923,6.153-10.71,17.22-10.651v-0.592c0-2.367-0.652-6.627-6.51-6.627   c-2.662,0-5.443,0.828-7.456,2.13l-1.183-3.432c2.366-1.539,5.799-2.545,9.408-2.545c8.758,0,10.888,5.977,10.888,11.717v10.71   c0,2.485,0.117,4.911,0.474,6.864H731.815z M731.047,313.798c-5.681-0.118-12.131,0.888-12.131,6.45   c0,3.373,2.249,4.971,4.911,4.971c3.729,0,6.095-2.367,6.924-4.793c0.178-0.532,0.296-1.124,0.296-1.657V313.798z"/>
	<path fill="#003462" d="M763.655,315.869l-4.143,12.545h-5.325l13.551-39.883h6.213l13.61,39.883h-5.504l-4.26-12.545H763.655z    M776.732,311.846l-3.905-11.479c-0.888-2.604-1.479-4.971-2.071-7.278h-0.118c-0.592,2.366-1.243,4.793-2.012,7.219l-3.905,11.539   H776.732z"/>
	<path fill="#003462" d="M793.069,308.709c0-3.373-0.059-6.272-0.236-8.935h4.557l0.177,5.621h0.237   c1.302-3.847,4.438-6.272,7.929-6.272c0.592,0,1.007,0.06,1.479,0.178v4.911c-0.532-0.118-1.064-0.178-1.775-0.178   c-3.668,0-6.271,2.781-6.982,6.687c-0.118,0.711-0.236,1.539-0.236,2.427v15.267h-5.148V308.709z"/>
	<path fill="#003462" d="M836.623,299.774c-0.118,2.07-0.237,4.379-0.237,7.87v16.627c0,6.568-1.301,10.593-4.082,13.078   c-2.781,2.604-6.806,3.432-10.415,3.432c-3.432,0-7.219-0.828-9.526-2.367l1.302-3.964c1.894,1.183,4.852,2.248,8.402,2.248   c5.325,0,9.231-2.781,9.231-10v-3.195h-0.119c-1.598,2.662-4.675,4.793-9.112,4.793c-7.101,0-12.189-6.036-12.189-13.965   c0-9.705,6.331-15.208,12.899-15.208c4.971,0,7.691,2.604,8.936,4.971h0.118l0.236-4.319H836.623z M831.238,311.076   c0-0.888-0.06-1.657-0.296-2.367c-0.947-3.018-3.491-5.503-7.278-5.503c-4.971,0-8.521,4.201-8.521,10.829   c0,5.621,2.841,10.296,8.462,10.296c3.195,0,6.095-2.012,7.22-5.325c0.296-0.888,0.414-1.894,0.414-2.781V311.076z"/>
	<path fill="#003462" d="M847.928,315.041c0.119,7.041,4.616,9.941,9.823,9.941c3.728,0,5.977-0.651,7.93-1.479l0.887,3.728   c-1.834,0.828-4.97,1.775-9.526,1.775c-8.817,0-14.083-5.799-14.083-14.438s5.089-15.444,13.432-15.444   c9.35,0,11.835,8.226,11.835,13.491c0,1.065-0.118,1.894-0.178,2.427H847.928z M863.195,311.313   c0.059-3.313-1.361-8.462-7.22-8.462c-5.267,0-7.574,4.853-7.988,8.462H863.195z"/>
	<path fill="#003462" d="M874.678,307.525c0-2.958-0.059-5.385-0.236-7.751h4.615l0.296,4.733h0.118   c1.421-2.722,4.734-5.385,9.468-5.385c3.965,0,10.119,2.367,10.119,12.189v17.102h-5.207v-16.51c0-4.615-1.717-8.462-6.628-8.462   c-3.432,0-6.095,2.427-6.983,5.326c-0.235,0.65-0.354,1.538-0.354,2.426v17.22h-5.208V307.525z"/>
	<path fill="#003462" d="M913.559,291.549v8.226h7.456v3.963h-7.456v15.445c0,3.551,1.006,5.563,3.905,5.563   c1.361,0,2.367-0.178,3.019-0.354l0.236,3.905c-1.006,0.414-2.604,0.71-4.615,0.71c-2.427,0-4.379-0.77-5.622-2.189   c-1.479-1.539-2.012-4.083-2.012-7.456v-15.623h-4.438v-3.963h4.438v-6.864L913.559,291.549z"/>
	<path fill="#003462" d="M932.675,291.727c0.059,1.775-1.243,3.195-3.314,3.195c-1.834,0-3.136-1.42-3.136-3.195   c0-1.835,1.36-3.255,3.254-3.255C931.432,288.472,932.675,289.892,932.675,291.727 M926.875,299.774h5.208v28.64h-5.208V299.774z"/>
	<path fill="#003462" d="M940.723,307.525c0-2.958-0.059-5.385-0.236-7.751h4.615l0.296,4.733h0.118   c1.421-2.722,4.734-5.385,9.468-5.385c3.965,0,10.119,2.367,10.119,12.189v17.102h-5.207v-16.51c0-4.615-1.717-8.462-6.628-8.462   c-3.432,0-6.095,2.427-6.983,5.326c-0.235,0.65-0.354,1.538-0.354,2.426v17.22h-5.208V307.525z"/>
	<path fill="#003462" d="M989.427,328.414l-0.416-3.609h-0.176c-1.598,2.248-4.675,4.261-8.758,4.261   c-5.8,0-8.758-4.083-8.758-8.226c0-6.923,6.154-10.71,17.22-10.651v-0.592c0-2.367-0.651-6.627-6.51-6.627   c-2.662,0-5.443,0.828-7.456,2.13l-1.183-3.432c2.366-1.539,5.799-2.545,9.408-2.545c8.758,0,10.888,5.977,10.888,11.717v10.71   c0,2.485,0.117,4.911,0.474,6.864H989.427z M988.657,313.798c-5.681-0.118-12.131,0.888-12.131,6.45   c0,3.373,2.249,4.971,4.911,4.971c3.729,0,6.095-2.367,6.924-4.793c0.178-0.532,0.296-1.124,0.296-1.657V313.798z"/>
</g>
</svg>